# xmcd
# 
# Track frame offsets:
#     183
#     14795
#     24820
#     45063
#     57295
#     68158
#     80570
#     97945
#     109458
#     119408
# 
# Disc length: 1830
# 
# Revision: 2
# Processed by: cddbd v1.5.2PL0 Copyright (c) Steve Scherf et al.
# Submitted via: BonkEnc v1.0.6
# 
DISCID=7907240a
DTITLE=Glen Cambell - The World of Glen Cambell Live
DYEAR=1992
DGENRE=Country
TTITLE0=Rhnstone Cowboy
TTITLE1=Gentle On My Mind
TTITLE2=Medley:Wichita Linemen - Galveston - Country Boy (You Got your Feet in LA)
TTITLE3=By The Time I Get To Phoenix
TTITLE4=Dreams Of The Everyday Housewife
TTITLE5=Heartache Number Three
TTITLE6=Please Come To Boston
TTITLE7=It's Only Make Believe
TTITLE8=Try A Little Kindness
TTITLE9=Southern Nights
EXTD=
EXTT0=
EXTT1=
EXTT2=
EXTT3=
EXTT4=
EXTT5=
EXTT6=
EXTT7=
EXTT8=
EXTT9=
PLAYORDER=
